<?xml version="1.0" encoding="UTF-8"?>
<svg width="393px" height="98px" viewBox="0 0 393 98" version="1.1" xmlns="http://www.w3.org/2000/svg" xmlns:xlink="http://www.w3.org/1999/xlink">
    <!-- Generator: Sketch 41.2 (35397) - http://www.bohemiancoding.com/sketch -->
    <title>logo</title>
    <desc>Created with Sketch.</desc>
    <defs></defs>
    <g id="Page-1" stroke="none" stroke-width="1" fill="none" fill-rule="evenodd">
        <g id="logo" fill="#FFFFFF">
            <path d="M18.5341797,72.9101562 C18.915041,76.1263182 19.740228,78.4114516 21.0097656,79.765625 C23.2526154,82.1777464 27.3997093,83.3837891 33.4511719,83.3837891 C37.0058771,83.3837891 39.8305559,82.854823 41.925293,81.796875 C44.02003,80.738927 45.0673828,79.1520288 45.0673828,77.0361328 C45.0673828,75.0048727 44.2210371,73.4602917 42.5283203,72.4023438 C40.8356035,71.3443958 34.5514867,69.5247525 23.6757812,66.9433594 C15.8469661,64.9967351 10.3245604,62.5634912 7.10839844,59.6435547 C3.89223652,56.7659361 2.28417969,52.6188422 2.28417969,47.2021484 C2.28417969,40.8121425 4.79147883,35.3214748 9.80615234,30.7299805 C14.8208259,26.1384862 21.8772332,23.8427734 30.9755859,23.8427734 C39.6084416,23.8427734 46.6436903,25.5672028 52.081543,29.0161133 C57.5193957,32.4650238 60.6402955,38.4211816 61.4443359,46.8847656 L43.3535156,46.8847656 C43.0996081,44.55728 42.4436902,42.7164781 41.3857422,41.3623047 C39.3968,38.9078653 36.0114171,37.6806641 31.2294922,37.6806641 C27.2939256,37.6806641 24.4904055,38.2942647 22.8188477,39.5214844 C21.1472898,40.7487041 20.3115234,42.1874917 20.3115234,43.8378906 C20.3115234,45.9114687 21.2001864,47.4137323 22.9775391,48.3447266 C24.7548917,49.3180387 31.0390085,50.9895715 41.8300781,53.359375 C49.0241245,55.0520918 54.4195784,57.6122875 58.0166016,61.0400391 C61.5713068,64.5101085 63.3486328,68.8476302 63.3486328,74.0527344 C63.3486328,80.9082374 60.7990164,86.5046984 55.699707,90.8422852 C50.6003977,95.1798719 42.7188033,97.3486328 32.0546875,97.3486328 C21.1789821,97.3486328 13.1492772,95.0529201 7.96533203,90.4614258 C2.78138684,85.8699315 0.189453125,80.0195668 0.189453125,72.9101562 L18.5341797,72.9101562 Z M99.8358068,25.8105469 L118.180533,25.8105469 L128.717643,75.6396484 L139.508658,25.8105469 L158.361197,25.8105469 L138.302604,95 L119.703971,95 L108.849479,44.5996094 L97.8680334,95 L79.0789709,95 L59.6551428,25.8105469 L79.0789709,25.8105469 L89.8699865,75.4492188 L99.8358068,25.8105469 Z M196.943098,61.3574219 C195.800514,62.0768265 194.647368,62.6586892 193.483625,63.1030273 C192.319883,63.5473655 190.722405,63.959959 188.691145,64.3408203 L184.628645,65.1025391 C180.820032,65.7796258 178.090567,66.6048128 176.440168,67.578125 C173.647186,69.2285239 172.250715,71.7887196 172.250715,75.2587891 C172.250715,78.3479972 173.10764,80.580234 174.821516,81.9555664 C176.535392,83.3308988 178.619518,84.0185547 181.073957,84.0185547 C184.967206,84.0185547 188.553596,82.875988 191.833235,80.5908203 C195.112874,78.3056526 196.816144,74.1374 196.943098,68.0859375 L196.943098,61.3574219 Z M185.961653,52.9150391 C189.304768,52.4918599 191.695695,51.9628938 193.134504,51.328125 C195.715897,50.2278591 197.006575,48.514009 197.006575,46.1865234 C197.006575,43.3512228 196.022698,41.3940484 194.054914,40.3149414 C192.087131,39.2358344 189.198976,38.6962891 185.390364,38.6962891 C181.116254,38.6962891 178.090568,39.7542212 176.313215,41.8701172 C175.043678,43.4358802 174.197332,45.5517445 173.774153,48.2177734 L156.318098,48.2177734 C156.698959,42.1663109 158.391651,37.1940299 161.396223,33.3007812 C166.178148,27.2070008 174.387701,24.1601562 186.025129,24.1601562 C193.600037,24.1601562 200.328485,25.6624199 206.210676,28.6669922 C212.092867,31.6715645 215.033918,37.3420807 215.033918,45.6787109 L215.033918,77.4169922 C215.033918,79.617524 215.076236,82.283513 215.160872,85.4150391 C215.287825,87.7848426 215.647522,89.3928994 216.239973,90.2392578 C216.832424,91.0856162 217.721087,91.7838514 218.905989,92.3339844 L218.905989,95 L199.228254,95 C198.678121,93.6035086 198.297266,92.2916728 198.085676,91.0644531 C197.874087,89.8372334 197.704817,88.440763 197.577864,86.875 C195.081106,89.5833469 192.203531,91.8896389 188.945051,93.7939453 C185.051803,96.0367951 180.650805,97.1582031 175.741926,97.1582031 C169.478874,97.1582031 164.305586,95.3702978 160.221907,91.7944336 C156.138227,88.2185694 154.096418,83.1510745 154.096418,76.5917969 C154.096418,68.085895 157.376008,61.92873 163.935286,58.1201172 C167.532309,56.0465391 172.821969,54.5654341 179.804426,53.6767578 L185.961653,52.9150391 Z M240.031835,95 L221.941014,95 L221.941014,1.43554688 L240.031835,1.43554688 L240.031835,95 Z M266.743618,17.5585938 L248.398891,17.5585938 L248.398891,0.864257812 L266.743618,0.864257812 L266.743618,17.5585938 Z M248.398891,25.8105469 L266.743618,25.8105469 L266.743618,95 L248.398891,95 L248.398891,25.8105469 Z M270.794269,40.5371094 L270.794269,25.8105469 L326.90755,25.8105469 L326.90755,40.8544922 L291.805011,80.1464844 L328.113605,80.1464844 L328.113605,95 L268.382159,95 L268.382159,80.9082031 L303.865558,40.5371094 L270.794269,40.5371094 Z M347.747751,42.8222656 C345.441425,45.4459767 343.992058,49.0006286 343.399607,53.4863281 L371.519724,53.4863281 C371.223498,48.7044032 369.774131,45.075696 367.171579,42.6000977 C364.569027,40.1244993 361.342334,38.8867188 357.491404,38.8867188 C353.30193,38.8867188 350.054078,40.1985546 347.747751,42.8222656 Z M373.043161,27.2070312 C377.655815,29.3652452 381.46437,32.7717866 384.468943,37.4267578 C387.17729,41.531596 388.933457,46.2922906 389.737497,51.7089844 C390.202994,54.8828284 390.393422,59.4530952 390.308786,65.4199219 L342.955271,65.4199219 C343.209178,72.3600607 345.388518,77.2265485 349.493357,80.0195312 C351.990114,81.754566 354.994641,82.6220703 358.507029,82.6220703 C362.231006,82.6220703 365.256691,81.5641382 367.584177,79.4482422 C368.853715,78.3056583 369.975123,76.7187602 370.948435,74.6875 L389.420115,74.6875 C388.954617,78.7923382 386.817594,82.9605908 383.008982,87.1923828 C377.084473,93.9209321 368.790285,97.2851562 358.126169,97.2851562 C349.324042,97.2851562 341.55882,94.4498981 334.830271,88.7792969 C328.101721,83.1086956 324.737497,73.8835274 324.737497,61.1035156 C324.737497,49.1275443 327.773763,39.9446934 333.846384,33.5546875 C339.919006,27.1646816 347.8006,23.9697266 357.491404,23.9697266 C363.246641,23.9697266 368.430508,25.0488173 373.043161,27.2070312 Z" id="swalize"></path>
            <path d="M20.5341797,72.9101562 C20.915041,76.1263182 21.740228,78.4114516 23.0097656,79.765625 C25.2526154,82.1777464 29.3997093,83.3837891 35.4511719,83.3837891 C39.0058771,83.3837891 41.8305559,82.854823 43.925293,81.796875 C46.02003,80.738927 47.0673828,79.1520288 47.0673828,77.0361328 C47.0673828,75.0048727 46.2210371,73.4602917 44.5283203,72.4023438 C42.8356035,71.3443958 36.5514867,69.5247525 25.6757812,66.9433594 C17.8469661,64.9967351 12.3245604,62.5634912 9.10839844,59.6435547 C5.89223652,56.7659361 4.28417969,52.6188422 4.28417969,47.2021484 C4.28417969,40.8121425 6.79147883,35.3214748 11.8061523,30.7299805 C16.8208259,26.1384862 23.8772332,23.8427734 32.9755859,23.8427734 C41.6084416,23.8427734 48.6436903,25.5672028 54.081543,29.0161133 C59.5193957,32.4650238 62.6402955,38.4211816 63.4443359,46.8847656 L45.3535156,46.8847656 C45.0996081,44.55728 44.4436902,42.7164781 43.3857422,41.3623047 C41.3968,38.9078653 38.0114171,37.6806641 33.2294922,37.6806641 C29.2939256,37.6806641 26.4904055,38.2942647 24.8188477,39.5214844 C23.1472898,40.7487041 22.3115234,42.1874917 22.3115234,43.8378906 C22.3115234,45.9114687 23.2001864,47.4137323 24.9775391,48.3447266 C26.7548917,49.3180387 33.0390085,50.9895715 43.8300781,53.359375 C51.0241245,55.0520918 56.4195784,57.6122875 60.0166016,61.0400391 C63.5713068,64.5101085 65.3486328,68.8476302 65.3486328,74.0527344 C65.3486328,80.9082374 62.7990164,86.5046984 57.699707,90.8422852 C52.6003977,95.1798719 44.7188033,97.3486328 34.0546875,97.3486328 C23.1789821,97.3486328 15.1492772,95.0529201 9.96533203,90.4614258 C4.78138684,85.8699315 2.18945312,80.0195668 2.18945312,72.9101562 L20.5341797,72.9101562 Z M101.835807,25.8105469 L120.180533,25.8105469 L130.717643,75.6396484 L141.508658,25.8105469 L160.361197,25.8105469 L140.302604,95 L121.703971,95 L110.849479,44.5996094 L99.8680334,95 L81.0789709,95 L61.6551428,25.8105469 L81.0789709,25.8105469 L91.8699865,75.4492188 L101.835807,25.8105469 Z M198.943098,61.3574219 C197.800514,62.0768265 196.647368,62.6586892 195.483625,63.1030273 C194.319883,63.5473655 192.722405,63.959959 190.691145,64.3408203 L186.628645,65.1025391 C182.820032,65.7796258 180.090567,66.6048128 178.440168,67.578125 C175.647186,69.2285239 174.250715,71.7887196 174.250715,75.2587891 C174.250715,78.3479972 175.10764,80.580234 176.821516,81.9555664 C178.535392,83.3308988 180.619518,84.0185547 183.073957,84.0185547 C186.967206,84.0185547 190.553596,82.875988 193.833235,80.5908203 C197.112874,78.3056526 198.816144,74.1374 198.943098,68.0859375 L198.943098,61.3574219 Z M187.961653,52.9150391 C191.304768,52.4918599 193.695695,51.9628938 195.134504,51.328125 C197.715897,50.2278591 199.006575,48.514009 199.006575,46.1865234 C199.006575,43.3512228 198.022698,41.3940484 196.054914,40.3149414 C194.087131,39.2358344 191.198976,38.6962891 187.390364,38.6962891 C183.116254,38.6962891 180.090568,39.7542212 178.313215,41.8701172 C177.043678,43.4358802 176.197332,45.5517445 175.774153,48.2177734 L158.318098,48.2177734 C158.698959,42.1663109 160.391651,37.1940299 163.396223,33.3007812 C168.178148,27.2070008 176.387701,24.1601562 188.025129,24.1601562 C195.600037,24.1601562 202.328485,25.6624199 208.210676,28.6669922 C214.092867,31.6715645 217.033918,37.3420807 217.033918,45.6787109 L217.033918,77.4169922 C217.033918,79.617524 217.076236,82.283513 217.160872,85.4150391 C217.287825,87.7848426 217.647522,89.3928994 218.239973,90.2392578 C218.832424,91.0856162 219.721087,91.7838514 220.905989,92.3339844 L220.905989,95 L201.228254,95 C200.678121,93.6035086 200.297266,92.2916728 200.085676,91.0644531 C199.874087,89.8372334 199.704817,88.440763 199.577864,86.875 C197.081106,89.5833469 194.203531,91.8896389 190.945051,93.7939453 C187.051803,96.0367951 182.650805,97.1582031 177.741926,97.1582031 C171.478874,97.1582031 166.305586,95.3702978 162.221907,91.7944336 C158.138227,88.2185694 156.096418,83.1510745 156.096418,76.5917969 C156.096418,68.085895 159.376008,61.92873 165.935286,58.1201172 C169.532309,56.0465391 174.821969,54.5654341 181.804426,53.6767578 L187.961653,52.9150391 Z M242.031835,95 L223.941014,95 L223.941014,1.43554688 L242.031835,1.43554688 L242.031835,95 Z M268.743618,17.5585938 L250.398891,17.5585938 L250.398891,0.864257812 L268.743618,0.864257812 L268.743618,17.5585938 Z M250.398891,25.8105469 L268.743618,25.8105469 L268.743618,95 L250.398891,95 L250.398891,25.8105469 Z M272.794269,40.5371094 L272.794269,25.8105469 L328.90755,25.8105469 L328.90755,40.8544922 L293.805011,80.1464844 L330.113605,80.1464844 L330.113605,95 L270.382159,95 L270.382159,80.9082031 L305.865558,40.5371094 L272.794269,40.5371094 Z M349.747751,42.8222656 C347.441425,45.4459767 345.992058,49.0006286 345.399607,53.4863281 L373.519724,53.4863281 C373.223498,48.7044032 371.774131,45.075696 369.171579,42.6000977 C366.569027,40.1244993 363.342334,38.8867188 359.491404,38.8867188 C355.30193,38.8867188 352.054078,40.1985546 349.747751,42.8222656 Z M375.043161,27.2070312 C379.655815,29.3652452 383.46437,32.7717866 386.468943,37.4267578 C389.17729,41.531596 390.933457,46.2922906 391.737497,51.7089844 C392.202994,54.8828284 392.393422,59.4530952 392.308786,65.4199219 L344.955271,65.4199219 C345.209178,72.3600607 347.388518,77.2265485 351.493357,80.0195312 C353.990114,81.754566 356.994641,82.6220703 360.507029,82.6220703 C364.231006,82.6220703 367.256691,81.5641382 369.584177,79.4482422 C370.853715,78.3056583 371.975123,76.7187602 372.948435,74.6875 L391.420115,74.6875 C390.954617,78.7923382 388.817594,82.9605908 385.008982,87.1923828 C379.084473,93.9209321 370.790285,97.2851562 360.126169,97.2851562 C351.324042,97.2851562 343.55882,94.4498981 336.830271,88.7792969 C330.101721,83.1086956 326.737497,73.8835274 326.737497,61.1035156 C326.737497,49.1275443 329.773763,39.9446934 335.846384,33.5546875 C341.919006,27.1646816 349.8006,23.9697266 359.491404,23.9697266 C365.246641,23.9697266 370.430508,25.0488173 375.043161,27.2070312 Z" id="swalize"></path>
            <rect id="Rectangle-2" x="247" y="0" width="23" height="23"></rect>
            <rect id="Rectangle-2" fill-opacity="0.2" x="270" y="0" width="23" height="23"></rect>
            <rect id="Rectangle-2" opacity="0.6" x="293" y="0" width="23" height="23"></rect>
            <rect id="Rectangle-2" opacity="0.4" x="316" y="0" width="23" height="23"></rect>
        </g>
    </g>
</svg>